<?xml version="1.0" encoding="utf-8"?>
<!-- Generator: Adobe Illustrator 26.0.0, SVG Export Plug-In . SVG Version: 6.00 Build 0)  -->
<svg version="1.1" xmlns="http://www.w3.org/2000/svg" xmlns:xlink="http://www.w3.org/1999/xlink" x="0px" y="0px"
	 viewBox="0 0 104 104" style="enable-background:new 0 0 104 104;" xml:space="preserve">
<style type="text/css">
	.st0{display:none;}
</style>
<g id="Capa_1">
	<path d="M19.5,0C8.7,0,0,8.7,0,19.5v65C0,95.3,8.7,104,19.5,104h65c10.8,0,19.5-8.7,19.5-19.5v-65C104,8.7,95.3,0,84.5,0H19.5z
		 M68,26c1.6,0,2.9,0.5,3.9,1.4c1,0.9,1.5,2.2,1.5,3.6c0,1.5-0.5,2.6-1.5,3.5c-1,0.8-2.3,1.2-3.9,1.2c-1.6,0-2.9-0.5-3.8-1.4
		c-0.9-0.9-1.4-2-1.4-3.4c0-1.4,0.5-2.6,1.4-3.5C65.1,26.6,66.4,26,68,26z M41.6,26.4h6.2c0.2,0,0.4,0.2,0.5,0.4l13,45
		c0.1,0.1,0.1,0.2,0.1,0.2c0,0.3-0.2,0.5-0.5,0.5h-8.5c-0.2,0-0.4-0.2-0.5-0.4l-2.6-9.9h-9.8L37,72.1c-0.1,0.2-0.1,0.4-0.4,0.4h-8
		c-0.2,0-0.4-0.1-0.5-0.2c-0.1-0.1,0-0.2,0-0.4l13-45.1C41.2,26.5,41.4,26.4,41.6,26.4z M64.2,39.5h7.6c0.3,0,0.5,0.2,0.5,0.5v32
		c0,0.3-0.2,0.5-0.5,0.5h-7.6c-0.3,0-0.5-0.2-0.5-0.5V40C63.8,39.7,64,39.5,64.2,39.5z M44.6,40.2l-0.8,4.6l-2.2,9.9h6.1l-2.5-9.9
		L44.6,40.2z"/>
</g>
<g id="Capa_2" class="st0">
</g>
</svg>
