<?xml version="1.0" encoding="utf-8"?>
<!-- Generator: Adobe Illustrator 26.0.0, SVG Export Plug-In . SVG Version: 6.00 Build 0)  -->
<svg version="1.1" id="Capa_1" xmlns="http://www.w3.org/2000/svg" xmlns:xlink="http://www.w3.org/1999/xlink" x="0px" y="0px"
	 viewBox="0 0 50 50" style="enable-background:new 0 0 50 50;" xml:space="preserve">
<path d="M46.8,0H3.2C1.4,0,0,1.4,0,3.2v43.6C0,48.6,1.4,50,3.2,50h43.6c1.8,0,3.2-1.4,3.2-3.2V3.2C50,1.4,48.6,0,46.8,0z M27.4,38.3
	c0,4.8-2.8,6.9-6.9,6.9c-3.7,0-6.3-2.5-7.4-4.8l3.7-2.3c0.7,1.3,1.8,2.3,3.4,2.3c1.5,0,2.4-0.6,2.4-2.9v-15h4.8V38.3z M37.7,45.2
	c-4.2,0-6.6-2.1-7.9-4.8l3.6-2.4c1,1.6,2,3.1,4.3,3.1c1.9,0,2.9-0.9,2.9-2.2c0-1.6-1-2.1-3.1-3l-1.1-0.5c-3.3-1.4-5.5-3.1-5.5-6.8
	c0-3.4,2.6-6,6.7-6c2.9,0,5,1,6.5,3.6l-3.5,2.3c-0.8-1.4-1.6-1.9-2.9-1.9c-1.3,0-2.2,0.8-2.2,1.9c0,1.4,0.8,1.9,2.8,2.8l1.1,0.5
	c3.9,1.7,6,3.3,6,7.1C45.2,43,42,45.2,37.7,45.2z"/>
</svg>
