<?xml version="1.0" encoding="utf-8"?>
<!-- Generator: Adobe Illustrator 26.0.0, SVG Export Plug-In . SVG Version: 6.00 Build 0)  -->
<svg version="1.1" id="Capa_1" xmlns="http://www.w3.org/2000/svg" xmlns:xlink="http://www.w3.org/1999/xlink" x="0px" y="0px"
	 viewBox="0 0 24 24" style="enable-background:new 0 0 24 24;" xml:space="preserve">
<path d="M2.7,0C1.2,0,0,1.2,0,2.7v18.7C0,22.8,1.2,24,2.7,24h18.7c1.5,0,2.7-1.2,2.7-2.7V2.7C24,1.2,22.8,0,21.3,0H2.7z M6.3,6.7
	h2.5c3.1,0,3.5,2.9,3.5,3.5c0,2.5-1.7,3.3-3.3,3.3H7.4v2.6c0,0.6-0.5,1.1-1.1,1.1s-1.1-0.5-1.1-1.1V7.8C5.2,7.2,5.7,6.7,6.3,6.7z
	 M7.4,8.4v3.3h1.5c1,0,1.2-0.7,1.2-1.6c0-0.9-0.4-1.7-1.2-1.7H7.4z M16.2,9.3c1.1,0,1.9,0.4,2.4,1c0.5,0.6,0,1.5-0.7,1.5h-0.1
	c-0.4,0-0.7-0.2-0.8-0.5c-0.1-0.3-0.3-0.5-0.7-0.5c-0.4,0-0.7,0.2-0.7,0.7c0,1.2,3.6,0.9,3.6,3.6c0,1.9-1.9,2.2-2.9,2.2
	c-1.2,0-2-0.5-2.5-1.1c-0.4-0.6,0-1.5,0.7-1.5c0.4,0,0.7,0.2,0.8,0.5c0.2,0.5,0.7,0.6,0.9,0.6c0.5,0,0.9-0.2,0.9-0.7
	c0-1.1-3.6-1-3.6-3.5C13.5,9.8,15.2,9.3,16.2,9.3z"/>
</svg>
