<?xml version="1.0" encoding="utf-8"?>
<!-- Generator: Adobe Illustrator 26.0.0, SVG Export Plug-In . SVG Version: 6.00 Build 0)  -->
<svg version="1.1" xmlns="http://www.w3.org/2000/svg" xmlns:xlink="http://www.w3.org/1999/xlink" x="0px" y="0px"
	 viewBox="0 0 24 24" style="enable-background:new 0 0 24 24;" xml:space="preserve">
<g id="Capa_1">
	<path d="M21.3,0H2.7C1.2,0,0,1.2,0,2.7v18.7C0,22.8,1.2,24,2.7,24h18.7c1.5,0,2.7-1.2,2.7-2.7V2.7C24,1.2,22.8,0,21.3,0z M9.1,8.4
		H7.6v3.3h1.5c1,0,1.2-0.7,1.2-1.6C10.3,9.3,9.9,8.4,9.1,8.4z M9.1,13.5H7.6v3.8H5.3V6.7h3.6c3.1,0,3.5,2.9,3.5,3.5
		C12.4,12.6,10.7,13.5,9.1,13.5z M18.4,11.5c-0.1,0-0.6-0.1-0.7-0.1c-0.8,0-1.1,0.5-1.2,0.8v5.1h-2.2v-8h2.1l0.1,0.9
		c0.2-0.3,0.6-1.1,1.4-1.1c0.4,0,0.5,0.1,0.6,0.1L18.4,11.5z"/>
</g>
<g id="Capa_1_copia">
	<path d="M21.3,0H2.7C1.2,0,0,1.2,0,2.7v18.7C0,22.8,1.2,24,2.7,24h18.7c1.5,0,2.7-1.2,2.7-2.7V2.7C24,1.2,22.8,0,21.3,0z M9.1,8.4
		H7.6v3.3h1.5c1,0,1.2-0.7,1.2-1.6C10.3,9.3,9.9,8.4,9.1,8.4z M9.1,13.5H7.6v3.8H5.3V6.7h3.6c3.1,0,3.5,2.9,3.5,3.5
		C12.4,12.6,10.7,13.5,9.1,13.5z M18.4,11.5c-0.1,0-0.6-0.1-0.7-0.1c-0.8,0-1.1,0.5-1.2,0.8v5.1h-2.2v-8h2.1l0.1,0.9
		c0.2-0.3,0.6-1.1,1.4-1.1c0.4,0,0.5,0.1,0.6,0.1L18.4,11.5z"/>
</g>
</svg>
