<?xml version="1.0" encoding="utf-8"?>
<!-- Generator: Adobe Illustrator 26.0.0, SVG Export Plug-In . SVG Version: 6.00 Build 0)  -->
<svg version="1.1" id="Capa_1" xmlns="http://www.w3.org/2000/svg" xmlns:xlink="http://www.w3.org/1999/xlink" x="0px" y="0px"
	 viewBox="0 0 24 24" style="enable-background:new 0 0 24 24;" xml:space="preserve">
<style type="text/css">
	.st0{display:none;fill:none;}
	.st1{display:none;}
	.st2{display:inline;}
</style>
<g id="Capa_3">
	<g id="Capa_1_00000093861101614371271900000000107487706491083653_">
		<path d="M-0.1,2.6v18.7c0,1.5,1.2,2.6,2.6,2.6h18.8c1.5,0,2.6-1.2,2.6-2.6V2.6C24,1.2,22.8,0,21.4,0H2.5C1.1,0-0.1,1.2-0.1,2.6z
			 M9.6,17.7l-1.6-4l-1.6,4H3.8L6.6,12L3.9,6.4h2.6L8,10.3l1.5-3.9h2.6L9.6,12l2.7,5.7H9.6z M19.5,17.7h-2l-0.1-0.9
			c-0.5,0.7-1,1-1.8,1c-0.9,0-1.6-0.3-2-1s-0.7-1.7-0.7-3v-0.6c0-1.4,0.2-2.4,0.7-3.1s1.2-1,2.1-1c0.7,0,1.2,0.3,1.6,0.8V5.7h2.2
			V17.7L19.5,17.7z M16.3,11c-0.4,0-0.7,0.2-0.9,0.5s-0.3,0.9-0.3,1.8v0.6c0,0.8,0.1,1.4,0.3,1.7s0.5,0.5,0.9,0.5s0.8-0.2,1-0.6
			v-3.9C17,11.2,16.7,11,16.3,11z"/>
	</g>
	<path class="st0" d="M9.8,17.7l-1.6-4l-1.6,4H4L6.7,12L4.1,6.4h2.6l1.5,3.9l1.5-3.9h2.6L9.7,12l2.7,5.7H9.8z M19.7,17.7h-2
		l-0.1-0.9c-0.9,1.4-3,1.3-3.8,0c-0.5-0.7-0.7-1.7-0.7-3c-0.1-1.3,0.1-3,0.7-3.7c0.8-1.2,2.8-1.5,3.7-0.2V5.7h2.2V17.7L19.7,17.7z
		 M16.5,11c-1.3,0-1.1,1.6-1.2,2.8c0,0.8,0.1,1.4,0.3,1.7c0.4,0.7,1.5,0.6,1.9-0.1v-3.9C17.2,11.2,16.9,11,16.5,11z"/>
</g>
<g id="Capa_1_copia" class="st1">
	<path class="st2" d="M21.3,0H2.7C1.2,0,0,1.2,0,2.7v18.7C0,22.8,1.2,24,2.7,24h18.7c1.5,0,2.7-1.2,2.7-2.7V2.7
		C24,1.2,22.8,0,21.3,0z"/>
</g>
</svg>
